<?xml version="1.0" encoding="UTF-8" standalone="no"?>
<!DOCTYPE svg PUBLIC "-//W3C//DTD SVG 1.1//EN" "http://www.w3.org/Graphics/SVG/1.1/DTD/svg11.dtd">
<svg width="100%" height="100%" viewBox="0 0 1920 1920" version="1.1" xmlns="http://www.w3.org/2000/svg" xmlns:xlink="http://www.w3.org/1999/xlink" xml:space="preserve" xmlns:serif="http://www.serif.com/" style="fill-rule:evenodd;clip-rule:evenodd;stroke-linecap:round;stroke-linejoin:round;stroke-miterlimit:1.5;">
    <g transform="matrix(1,0,0,1,-536,-473)">
        <g transform="matrix(7.93388,0,0,5.16129,3780.96,803.323)">
            <rect id="Background" x="-409" y="-64" width="242" height="372" style="fill:none;"/>
            <clipPath id="_clip1">
                <rect id="Background1" serif:id="Background" x="-409" y="-64" width="242" height="372"/>
            </clipPath>
            <g clip-path="url(#_clip1)">
                <g transform="matrix(5.33859,0,-7.47052e-16,5.33859,1774.48,280.569)">
                    <g transform="matrix(1.26195,0,0,1.47286,-501.133,-269.987)">
                        <rect x="73.009" y="139.44" width="35.956" height="47.357" style="fill:rgb(254,249,221);"/>
                    </g>
                    <g id="Stripes" transform="matrix(0.5,0,0,0.5,-204.5,-32.3341)">
                        <g transform="matrix(0.126042,0,-4.77631e-33,0.19375,-409,-64)">
                            <g transform="matrix(7.1985e-19,0.011756,-4.25389,2.60475e-16,548.394,-0.997474)">
                                <rect x="84.848" y="44.287" width="106.114" height="84.629" style="fill:rgb(144,208,194);"/>
                            </g>
                            <g transform="matrix(7.1985e-19,0.011756,-4.25389,2.60475e-16,548.394,297.477)">
                                <rect x="84.848" y="44.287" width="106.114" height="84.629" style="fill:rgb(144,208,194);"/>
                            </g>
                            <g transform="matrix(7.1985e-19,0.011756,-4.25389,2.60475e-16,548.394,28.85)">
                                <rect x="84.848" y="44.287" width="106.114" height="84.629" style="fill:rgb(144,208,194);"/>
                            </g>
                            <g transform="matrix(7.1985e-19,0.011756,-4.25389,2.60475e-16,548.394,58.6975)">
                                <rect x="84.848" y="44.287" width="106.114" height="84.629" style="fill:rgb(144,208,194);"/>
                            </g>
                            <g transform="matrix(7.1985e-19,0.011756,-4.25389,2.60475e-16,548.394,88.545)">
                                <rect x="84.848" y="44.287" width="106.114" height="84.629" style="fill:rgb(144,208,194);"/>
                            </g>
                            <g transform="matrix(7.1985e-19,0.011756,-4.25389,2.60475e-16,548.394,118.392)">
                                <rect x="84.848" y="44.287" width="106.114" height="84.629" style="fill:rgb(144,208,194);"/>
                            </g>
                            <g transform="matrix(7.1985e-19,0.011756,-4.25389,2.60475e-16,548.394,148.24)">
                                <rect x="84.848" y="44.287" width="106.114" height="84.629" style="fill:rgb(144,208,194);"/>
                            </g>
                            <g transform="matrix(7.1985e-19,0.011756,-4.25389,2.60475e-16,548.394,178.087)">
                                <rect x="84.848" y="44.287" width="106.114" height="84.629" style="fill:rgb(144,208,194);"/>
                            </g>
                            <g transform="matrix(7.1985e-19,0.011756,-4.25389,2.60475e-16,548.394,207.935)">
                                <rect x="84.848" y="44.287" width="106.114" height="84.629" style="fill:rgb(144,208,194);"/>
                            </g>
                            <g transform="matrix(7.1985e-19,0.011756,-4.25389,2.60475e-16,548.394,237.782)">
                                <rect x="84.848" y="44.287" width="106.114" height="84.629" style="fill:rgb(144,208,194);"/>
                            </g>
                            <g transform="matrix(7.1985e-19,0.011756,-4.25389,2.60475e-16,548.394,267.63)">
                                <rect x="84.848" y="44.287" width="106.114" height="84.629" style="fill:rgb(144,208,194);"/>
                            </g>
                            <g transform="matrix(7.1985e-19,0.011756,-4.25389,2.60475e-16,548.394,327.325)">
                                <rect x="84.848" y="44.287" width="106.114" height="84.629" style="fill:rgb(144,208,194);"/>
                            </g>
                        </g>
                        <g transform="matrix(7.71783e-18,0.19375,-0.126042,1.18638e-17,-366.024,-64.6681)">
                            <g transform="matrix(7.1985e-19,0.011756,-4.25389,2.60475e-16,548.394,-0.997474)">
                                <rect x="84.848" y="44.287" width="106.114" height="84.629" style="fill:rgb(144,208,194);"/>
                            </g>
                            <g transform="matrix(7.1985e-19,0.011756,-4.25389,2.60475e-16,548.394,297.477)">
                                <rect x="84.848" y="44.287" width="106.114" height="84.629" style="fill:rgb(144,208,194);"/>
                            </g>
                            <g transform="matrix(7.1985e-19,0.011756,-4.25389,2.60475e-16,548.394,28.85)">
                                <rect x="84.848" y="44.287" width="106.114" height="84.629" style="fill:rgb(144,208,194);"/>
                            </g>
                            <g transform="matrix(7.1985e-19,0.011756,-4.25389,2.60475e-16,548.394,58.6975)">
                                <rect x="84.848" y="44.287" width="106.114" height="84.629" style="fill:rgb(144,208,194);"/>
                            </g>
                            <g transform="matrix(7.1985e-19,0.011756,-4.25389,2.60475e-16,548.394,88.545)">
                                <rect x="84.848" y="44.287" width="106.114" height="84.629" style="fill:rgb(144,208,194);"/>
                            </g>
                            <g transform="matrix(7.1985e-19,0.011756,-4.25389,2.60475e-16,548.394,118.392)">
                                <rect x="84.848" y="44.287" width="106.114" height="84.629" style="fill:rgb(144,208,194);"/>
                            </g>
                            <g transform="matrix(7.1985e-19,0.011756,-4.25389,2.60475e-16,548.394,148.24)">
                                <rect x="84.848" y="44.287" width="106.114" height="84.629" style="fill:rgb(144,208,194);"/>
                            </g>
                            <g transform="matrix(7.1985e-19,0.011756,-4.25389,2.60475e-16,548.394,178.087)">
                                <rect x="84.848" y="44.287" width="106.114" height="84.629" style="fill:rgb(144,208,194);"/>
                            </g>
                            <g transform="matrix(7.1985e-19,0.011756,-4.25389,2.60475e-16,548.394,207.935)">
                                <rect x="84.848" y="44.287" width="106.114" height="84.629" style="fill:rgb(144,208,194);"/>
                            </g>
                            <g transform="matrix(7.1985e-19,0.011756,-4.25389,2.60475e-16,548.394,237.782)">
                                <rect x="84.848" y="44.287" width="106.114" height="84.629" style="fill:rgb(144,208,194);"/>
                            </g>
                            <g transform="matrix(7.1985e-19,0.011756,-4.25389,2.60475e-16,548.394,267.63)">
                                <rect x="84.848" y="44.287" width="106.114" height="84.629" style="fill:rgb(144,208,194);"/>
                            </g>
                            <g transform="matrix(7.1985e-19,0.011756,-4.25389,2.60475e-16,548.394,327.325)">
                                <rect x="84.848" y="44.287" width="106.114" height="84.629" style="fill:rgb(144,208,194);"/>
                            </g>
                        </g>
                    </g>
                    <g id="Stripes1" serif:id="Stripes" transform="matrix(0.5,0,0,0.5,-181.813,-32.3341)">
                        <g transform="matrix(0.126042,0,-4.77631e-33,0.19375,-409,-64)">
                            <g transform="matrix(7.1985e-19,0.011756,-4.25389,2.60475e-16,548.394,-0.997474)">
                                <rect x="84.848" y="44.287" width="106.114" height="84.629" style="fill:rgb(144,208,194);"/>
                            </g>
                            <g transform="matrix(7.1985e-19,0.011756,-4.25389,2.60475e-16,548.394,297.477)">
                                <rect x="84.848" y="44.287" width="106.114" height="84.629" style="fill:rgb(144,208,194);"/>
                            </g>
                            <g transform="matrix(7.1985e-19,0.011756,-4.25389,2.60475e-16,548.394,28.85)">
                                <rect x="84.848" y="44.287" width="106.114" height="84.629" style="fill:rgb(144,208,194);"/>
                            </g>
                            <g transform="matrix(7.1985e-19,0.011756,-4.25389,2.60475e-16,548.394,58.6975)">
                                <rect x="84.848" y="44.287" width="106.114" height="84.629" style="fill:rgb(144,208,194);"/>
                            </g>
                            <g transform="matrix(7.1985e-19,0.011756,-4.25389,2.60475e-16,548.394,88.545)">
                                <rect x="84.848" y="44.287" width="106.114" height="84.629" style="fill:rgb(144,208,194);"/>
                            </g>
                            <g transform="matrix(7.1985e-19,0.011756,-4.25389,2.60475e-16,548.394,118.392)">
                                <rect x="84.848" y="44.287" width="106.114" height="84.629" style="fill:rgb(144,208,194);"/>
                            </g>
                            <g transform="matrix(7.1985e-19,0.011756,-4.25389,2.60475e-16,548.394,148.24)">
                                <rect x="84.848" y="44.287" width="106.114" height="84.629" style="fill:rgb(144,208,194);"/>
                            </g>
                            <g transform="matrix(7.1985e-19,0.011756,-4.25389,2.60475e-16,548.394,178.087)">
                                <rect x="84.848" y="44.287" width="106.114" height="84.629" style="fill:rgb(144,208,194);"/>
                            </g>
                            <g transform="matrix(7.1985e-19,0.011756,-4.25389,2.60475e-16,548.394,207.935)">
                                <rect x="84.848" y="44.287" width="106.114" height="84.629" style="fill:rgb(144,208,194);"/>
                            </g>
                            <g transform="matrix(7.1985e-19,0.011756,-4.25389,2.60475e-16,548.394,237.782)">
                                <rect x="84.848" y="44.287" width="106.114" height="84.629" style="fill:rgb(144,208,194);"/>
                            </g>
                            <g transform="matrix(7.1985e-19,0.011756,-4.25389,2.60475e-16,548.394,267.63)">
                                <rect x="84.848" y="44.287" width="106.114" height="84.629" style="fill:rgb(144,208,194);"/>
                            </g>
                            <g transform="matrix(7.1985e-19,0.011756,-4.25389,2.60475e-16,548.394,327.325)">
                                <rect x="84.848" y="44.287" width="106.114" height="84.629" style="fill:rgb(144,208,194);"/>
                            </g>
                        </g>
                        <g transform="matrix(7.71783e-18,0.19375,-0.126042,1.18638e-17,-366.024,-64.6681)">
                            <g transform="matrix(7.1985e-19,0.011756,-4.25389,2.60475e-16,548.394,-0.997474)">
                                <rect x="84.848" y="44.287" width="106.114" height="84.629" style="fill:rgb(144,208,194);"/>
                            </g>
                            <g transform="matrix(7.1985e-19,0.011756,-4.25389,2.60475e-16,548.394,297.477)">
                                <rect x="84.848" y="44.287" width="106.114" height="84.629" style="fill:rgb(144,208,194);"/>
                            </g>
                            <g transform="matrix(7.1985e-19,0.011756,-4.25389,2.60475e-16,548.394,28.85)">
                                <rect x="84.848" y="44.287" width="106.114" height="84.629" style="fill:rgb(144,208,194);"/>
                            </g>
                            <g transform="matrix(7.1985e-19,0.011756,-4.25389,2.60475e-16,548.394,58.6975)">
                                <rect x="84.848" y="44.287" width="106.114" height="84.629" style="fill:rgb(144,208,194);"/>
                            </g>
                            <g transform="matrix(7.1985e-19,0.011756,-4.25389,2.60475e-16,548.394,88.545)">
                                <rect x="84.848" y="44.287" width="106.114" height="84.629" style="fill:rgb(144,208,194);"/>
                            </g>
                            <g transform="matrix(7.1985e-19,0.011756,-4.25389,2.60475e-16,548.394,118.392)">
                                <rect x="84.848" y="44.287" width="106.114" height="84.629" style="fill:rgb(144,208,194);"/>
                            </g>
                            <g transform="matrix(7.1985e-19,0.011756,-4.25389,2.60475e-16,548.394,148.24)">
                                <rect x="84.848" y="44.287" width="106.114" height="84.629" style="fill:rgb(144,208,194);"/>
                            </g>
                            <g transform="matrix(7.1985e-19,0.011756,-4.25389,2.60475e-16,548.394,178.087)">
                                <rect x="84.848" y="44.287" width="106.114" height="84.629" style="fill:rgb(144,208,194);"/>
                            </g>
                            <g transform="matrix(7.1985e-19,0.011756,-4.25389,2.60475e-16,548.394,207.935)">
                                <rect x="84.848" y="44.287" width="106.114" height="84.629" style="fill:rgb(144,208,194);"/>
                            </g>
                            <g transform="matrix(7.1985e-19,0.011756,-4.25389,2.60475e-16,548.394,237.782)">
                                <rect x="84.848" y="44.287" width="106.114" height="84.629" style="fill:rgb(144,208,194);"/>
                            </g>
                            <g transform="matrix(7.1985e-19,0.011756,-4.25389,2.60475e-16,548.394,267.63)">
                                <rect x="84.848" y="44.287" width="106.114" height="84.629" style="fill:rgb(144,208,194);"/>
                            </g>
                            <g transform="matrix(7.1985e-19,0.011756,-4.25389,2.60475e-16,548.394,327.325)">
                                <rect x="84.848" y="44.287" width="106.114" height="84.629" style="fill:rgb(144,208,194);"/>
                            </g>
                        </g>
                    </g>
                    <g id="Stripes2" serif:id="Stripes" transform="matrix(0.5,0,1.2326e-32,0.5,-181.813,2.54093)">
                        <g transform="matrix(0.126042,0,-4.77631e-33,0.19375,-409,-64)">
                            <g transform="matrix(7.1985e-19,0.011756,-4.25389,2.60475e-16,548.394,-0.997474)">
                                <rect x="84.848" y="44.287" width="106.114" height="84.629" style="fill:rgb(144,208,194);"/>
                            </g>
                            <g transform="matrix(7.1985e-19,0.011756,-4.25389,2.60475e-16,548.394,297.477)">
                                <rect x="84.848" y="44.287" width="106.114" height="84.629" style="fill:rgb(144,208,194);"/>
                            </g>
                            <g transform="matrix(7.1985e-19,0.011756,-4.25389,2.60475e-16,548.394,28.85)">
                                <rect x="84.848" y="44.287" width="106.114" height="84.629" style="fill:rgb(144,208,194);"/>
                            </g>
                            <g transform="matrix(7.1985e-19,0.011756,-4.25389,2.60475e-16,548.394,58.6975)">
                                <rect x="84.848" y="44.287" width="106.114" height="84.629" style="fill:rgb(144,208,194);"/>
                            </g>
                            <g transform="matrix(7.1985e-19,0.011756,-4.25389,2.60475e-16,548.394,88.545)">
                                <rect x="84.848" y="44.287" width="106.114" height="84.629" style="fill:rgb(144,208,194);"/>
                            </g>
                            <g transform="matrix(7.1985e-19,0.011756,-4.25389,2.60475e-16,548.394,118.392)">
                                <rect x="84.848" y="44.287" width="106.114" height="84.629" style="fill:rgb(144,208,194);"/>
                            </g>
                            <g transform="matrix(7.1985e-19,0.011756,-4.25389,2.60475e-16,548.394,148.24)">
                                <rect x="84.848" y="44.287" width="106.114" height="84.629" style="fill:rgb(144,208,194);"/>
                            </g>
                            <g transform="matrix(7.1985e-19,0.011756,-4.25389,2.60475e-16,548.394,178.087)">
                                <rect x="84.848" y="44.287" width="106.114" height="84.629" style="fill:rgb(144,208,194);"/>
                            </g>
                            <g transform="matrix(7.1985e-19,0.011756,-4.25389,2.60475e-16,548.394,207.935)">
                                <rect x="84.848" y="44.287" width="106.114" height="84.629" style="fill:rgb(144,208,194);"/>
                            </g>
                            <g transform="matrix(7.1985e-19,0.011756,-4.25389,2.60475e-16,548.394,237.782)">
                                <rect x="84.848" y="44.287" width="106.114" height="84.629" style="fill:rgb(144,208,194);"/>
                            </g>
                            <g transform="matrix(7.1985e-19,0.011756,-4.25389,2.60475e-16,548.394,267.63)">
                                <rect x="84.848" y="44.287" width="106.114" height="84.629" style="fill:rgb(144,208,194);"/>
                            </g>
                            <g transform="matrix(7.1985e-19,0.011756,-4.25389,2.60475e-16,548.394,327.325)">
                                <rect x="84.848" y="44.287" width="106.114" height="84.629" style="fill:rgb(144,208,194);"/>
                            </g>
                        </g>
                        <g transform="matrix(7.71783e-18,0.19375,-0.126042,1.18638e-17,-366.024,-64.6681)">
                            <g transform="matrix(7.1985e-19,0.011756,-4.25389,2.60475e-16,548.394,-0.997474)">
                                <rect x="84.848" y="44.287" width="106.114" height="84.629" style="fill:rgb(144,208,194);"/>
                            </g>
                            <g transform="matrix(7.1985e-19,0.011756,-4.25389,2.60475e-16,548.394,297.477)">
                                <rect x="84.848" y="44.287" width="106.114" height="84.629" style="fill:rgb(144,208,194);"/>
                            </g>
                            <g transform="matrix(7.1985e-19,0.011756,-4.25389,2.60475e-16,548.394,28.85)">
                                <rect x="84.848" y="44.287" width="106.114" height="84.629" style="fill:rgb(144,208,194);"/>
                            </g>
                            <g transform="matrix(7.1985e-19,0.011756,-4.25389,2.60475e-16,548.394,58.6975)">
                                <rect x="84.848" y="44.287" width="106.114" height="84.629" style="fill:rgb(144,208,194);"/>
                            </g>
                            <g transform="matrix(7.1985e-19,0.011756,-4.25389,2.60475e-16,548.394,88.545)">
                                <rect x="84.848" y="44.287" width="106.114" height="84.629" style="fill:rgb(144,208,194);"/>
                            </g>
                            <g transform="matrix(7.1985e-19,0.011756,-4.25389,2.60475e-16,548.394,118.392)">
                                <rect x="84.848" y="44.287" width="106.114" height="84.629" style="fill:rgb(144,208,194);"/>
                            </g>
                            <g transform="matrix(7.1985e-19,0.011756,-4.25389,2.60475e-16,548.394,148.24)">
                                <rect x="84.848" y="44.287" width="106.114" height="84.629" style="fill:rgb(144,208,194);"/>
                            </g>
                            <g transform="matrix(7.1985e-19,0.011756,-4.25389,2.60475e-16,548.394,178.087)">
                                <rect x="84.848" y="44.287" width="106.114" height="84.629" style="fill:rgb(144,208,194);"/>
                            </g>
                            <g transform="matrix(7.1985e-19,0.011756,-4.25389,2.60475e-16,548.394,207.935)">
                                <rect x="84.848" y="44.287" width="106.114" height="84.629" style="fill:rgb(144,208,194);"/>
                            </g>
                            <g transform="matrix(7.1985e-19,0.011756,-4.25389,2.60475e-16,548.394,237.782)">
                                <rect x="84.848" y="44.287" width="106.114" height="84.629" style="fill:rgb(144,208,194);"/>
                            </g>
                            <g transform="matrix(7.1985e-19,0.011756,-4.25389,2.60475e-16,548.394,267.63)">
                                <rect x="84.848" y="44.287" width="106.114" height="84.629" style="fill:rgb(144,208,194);"/>
                            </g>
                            <g transform="matrix(7.1985e-19,0.011756,-4.25389,2.60475e-16,548.394,327.325)">
                                <rect x="84.848" y="44.287" width="106.114" height="84.629" style="fill:rgb(144,208,194);"/>
                            </g>
                        </g>
                    </g>
                    <g id="Stripes3" serif:id="Stripes" transform="matrix(0.5,0,1.2326e-32,0.5,-204.5,2.54093)">
                        <g transform="matrix(0.126042,0,-4.77631e-33,0.19375,-409,-64)">
                            <g transform="matrix(7.1985e-19,0.011756,-4.25389,2.60475e-16,548.394,-0.997474)">
                                <rect x="84.848" y="44.287" width="106.114" height="84.629" style="fill:rgb(144,208,194);"/>
                            </g>
                            <g transform="matrix(7.1985e-19,0.011756,-4.25389,2.60475e-16,548.394,297.477)">
                                <rect x="84.848" y="44.287" width="106.114" height="84.629" style="fill:rgb(144,208,194);"/>
                            </g>
                            <g transform="matrix(7.1985e-19,0.011756,-4.25389,2.60475e-16,548.394,28.85)">
                                <rect x="84.848" y="44.287" width="106.114" height="84.629" style="fill:rgb(144,208,194);"/>
                            </g>
                            <g transform="matrix(7.1985e-19,0.011756,-4.25389,2.60475e-16,548.394,58.6975)">
                                <rect x="84.848" y="44.287" width="106.114" height="84.629" style="fill:rgb(144,208,194);"/>
                            </g>
                            <g transform="matrix(7.1985e-19,0.011756,-4.25389,2.60475e-16,548.394,88.545)">
                                <rect x="84.848" y="44.287" width="106.114" height="84.629" style="fill:rgb(144,208,194);"/>
                            </g>
                            <g transform="matrix(7.1985e-19,0.011756,-4.25389,2.60475e-16,548.394,118.392)">
                                <rect x="84.848" y="44.287" width="106.114" height="84.629" style="fill:rgb(144,208,194);"/>
                            </g>
                            <g transform="matrix(7.1985e-19,0.011756,-4.25389,2.60475e-16,548.394,148.24)">
                                <rect x="84.848" y="44.287" width="106.114" height="84.629" style="fill:rgb(144,208,194);"/>
                            </g>
                            <g transform="matrix(7.1985e-19,0.011756,-4.25389,2.60475e-16,548.394,178.087)">
                                <rect x="84.848" y="44.287" width="106.114" height="84.629" style="fill:rgb(144,208,194);"/>
                            </g>
                            <g transform="matrix(7.1985e-19,0.011756,-4.25389,2.60475e-16,548.394,207.935)">
                                <rect x="84.848" y="44.287" width="106.114" height="84.629" style="fill:rgb(144,208,194);"/>
                            </g>
                            <g transform="matrix(7.1985e-19,0.011756,-4.25389,2.60475e-16,548.394,237.782)">
                                <rect x="84.848" y="44.287" width="106.114" height="84.629" style="fill:rgb(144,208,194);"/>
                            </g>
                            <g transform="matrix(7.1985e-19,0.011756,-4.25389,2.60475e-16,548.394,267.63)">
                                <rect x="84.848" y="44.287" width="106.114" height="84.629" style="fill:rgb(144,208,194);"/>
                            </g>
                            <g transform="matrix(7.1985e-19,0.011756,-4.25389,2.60475e-16,548.394,327.325)">
                                <rect x="84.848" y="44.287" width="106.114" height="84.629" style="fill:rgb(144,208,194);"/>
                            </g>
                        </g>
                        <g transform="matrix(7.71783e-18,0.19375,-0.126042,1.18638e-17,-366.024,-64.6681)">
                            <g transform="matrix(7.1985e-19,0.011756,-4.25389,2.60475e-16,548.394,-0.997474)">
                                <rect x="84.848" y="44.287" width="106.114" height="84.629" style="fill:rgb(144,208,194);"/>
                            </g>
                            <g transform="matrix(7.1985e-19,0.011756,-4.25389,2.60475e-16,548.394,297.477)">
                                <rect x="84.848" y="44.287" width="106.114" height="84.629" style="fill:rgb(144,208,194);"/>
                            </g>
                            <g transform="matrix(7.1985e-19,0.011756,-4.25389,2.60475e-16,548.394,28.85)">
                                <rect x="84.848" y="44.287" width="106.114" height="84.629" style="fill:rgb(144,208,194);"/>
                            </g>
                            <g transform="matrix(7.1985e-19,0.011756,-4.25389,2.60475e-16,548.394,58.6975)">
                                <rect x="84.848" y="44.287" width="106.114" height="84.629" style="fill:rgb(144,208,194);"/>
                            </g>
                            <g transform="matrix(7.1985e-19,0.011756,-4.25389,2.60475e-16,548.394,88.545)">
                                <rect x="84.848" y="44.287" width="106.114" height="84.629" style="fill:rgb(144,208,194);"/>
                            </g>
                            <g transform="matrix(7.1985e-19,0.011756,-4.25389,2.60475e-16,548.394,118.392)">
                                <rect x="84.848" y="44.287" width="106.114" height="84.629" style="fill:rgb(144,208,194);"/>
                            </g>
                            <g transform="matrix(7.1985e-19,0.011756,-4.25389,2.60475e-16,548.394,148.24)">
                                <rect x="84.848" y="44.287" width="106.114" height="84.629" style="fill:rgb(144,208,194);"/>
                            </g>
                            <g transform="matrix(7.1985e-19,0.011756,-4.25389,2.60475e-16,548.394,178.087)">
                                <rect x="84.848" y="44.287" width="106.114" height="84.629" style="fill:rgb(144,208,194);"/>
                            </g>
                            <g transform="matrix(7.1985e-19,0.011756,-4.25389,2.60475e-16,548.394,207.935)">
                                <rect x="84.848" y="44.287" width="106.114" height="84.629" style="fill:rgb(144,208,194);"/>
                            </g>
                            <g transform="matrix(7.1985e-19,0.011756,-4.25389,2.60475e-16,548.394,237.782)">
                                <rect x="84.848" y="44.287" width="106.114" height="84.629" style="fill:rgb(144,208,194);"/>
                            </g>
                            <g transform="matrix(7.1985e-19,0.011756,-4.25389,2.60475e-16,548.394,267.63)">
                                <rect x="84.848" y="44.287" width="106.114" height="84.629" style="fill:rgb(144,208,194);"/>
                            </g>
                            <g transform="matrix(7.1985e-19,0.011756,-4.25389,2.60475e-16,548.394,327.325)">
                                <rect x="84.848" y="44.287" width="106.114" height="84.629" style="fill:rgb(144,208,194);"/>
                            </g>
                        </g>
                    </g>
                </g>
                <g transform="matrix(0.110438,-0.0933771,0.0607453,0.169764,-521.735,-13.6773)">
                    <path d="M1124,753C1124,753 1081.74,822.773 1101,854" style="fill:none;stroke:rgb(248,196,204);stroke-width:9.8px;"/>
                </g>
                <g transform="matrix(0.110438,-0.0933771,0.0607453,0.169764,-521.735,-13.6773)">
                    <path d="M1221,761C1221,761 1244.02,834.696 1230,865" style="fill:none;stroke:rgb(248,196,204);stroke-width:9.8px;"/>
                </g>
                <g transform="matrix(0.110438,-0.0933771,0.0607453,0.169764,-521.735,-13.6773)">
                    <path d="M1321,854C1321,854 1396.27,830.498 1443,865" style="fill:none;stroke:rgb(248,196,204);stroke-width:9.8px;"/>
                </g>
                <g transform="matrix(0.110438,-0.0933771,0.0607453,0.169764,-521.735,-13.6773)">
                    <path d="M1321,887C1321,887 1414.75,884.391 1443,910" style="fill:none;stroke:rgb(248,196,204);stroke-width:9.8px;"/>
                </g>
                <g transform="matrix(0.110438,-0.0933771,0.0607453,0.169764,-521.735,-13.6773)">
                    <path d="M1338,934C1338,934 1410.06,932.81 1431,967.798" style="fill:none;stroke:rgb(248,196,204);stroke-width:9.8px;"/>
                </g>
                <g transform="matrix(0.110438,-0.0933771,0.0607453,0.169764,-521.735,-13.6773)">
                    <path d="M1273,698C1273,698 1382.38,568.299 1308,736" style="fill:none;stroke:rgb(248,196,204);stroke-width:9.8px;"/>
                </g>
                <g transform="matrix(0.110438,-0.0933771,0.0607453,0.169764,-521.735,-13.6773)">
                    <path d="M1051,736C1051,736 965.054,550.471 1088,693.078" style="fill:none;stroke:rgb(248,196,204);stroke-width:9.8px;"/>
                </g>
                <g transform="matrix(0.110438,-0.0933771,0.0607453,0.169764,-521.735,-13.6773)">
                    <path d="M1038,827C1038,827 983.698,795.582 934,798" style="fill:none;stroke:rgb(248,196,204);stroke-width:9.8px;"/>
                </g>
                <g transform="matrix(0.110438,-0.0933771,0.0607453,0.169764,-521.735,-13.6773)">
                    <path d="M1023.81,867C1023.81,867 958.568,837.322 908,847" style="fill:none;stroke:rgb(248,196,204);stroke-width:9.8px;"/>
                </g>
                <g transform="matrix(0.110438,-0.0933771,0.0607453,0.169764,-521.735,-13.6773)">
                    <path d="M1021.79,899C1021.79,899 939.255,872.101 908,890" style="fill:none;stroke:rgb(248,196,204);stroke-width:9.8px;"/>
                </g>
                <g transform="matrix(0.110438,-0.0933771,0.0607453,0.169764,-521.735,-13.6773)">
                    <path d="M1054.89,956C1054.89,956 1140.72,1157.95 1165,949" style="fill:none;stroke:rgb(248,196,204);stroke-width:9.8px;"/>
                </g>
                <g transform="matrix(0.110438,-0.0933771,0.0607453,0.169764,-521.735,-13.6773)">
                    <path d="M1274,967C1274,967 1185.85,1173.69 1165,949" style="fill:none;stroke:rgb(248,196,204);stroke-width:9.8px;"/>
                </g>
                <g transform="matrix(0.115383,0.0779787,-0.0507281,0.177365,-398.227,-299.201)">
                    <path d="M1655,794C1655,794 1711.99,879.675 1753,878" style="fill:none;stroke:rgb(248,196,204);stroke-width:9.8px;"/>
                </g>
                <g transform="matrix(0.115383,0.0779787,-0.0507281,0.177365,-398.227,-299.201)">
                    <path d="M1753,804C1753,804 1654.76,855.178 1664,892" style="fill:none;stroke:rgb(248,196,204);stroke-width:9.8px;"/>
                </g>
                <g transform="matrix(0.0827904,0.055952,-0.0403337,0.141022,-351.107,-230.236)">
                    <path d="M1825,836.012C1825,836.012 1885.52,697.902 1930,848C1974.48,998.098 1787.83,890.149 1825,836.012Z" style="fill:none;stroke:rgb(248,196,204);stroke-width:12.94px;"/>
                </g>
                <g transform="matrix(0.115383,0.0779787,-0.0507281,0.177365,-413.684,-304.853)">
                    <path d="M2045,781.347C2045,781.347 2095.58,872.849 2119,869.347" style="fill:none;stroke:rgb(248,196,204);stroke-width:9.8px;"/>
                </g>
                <g transform="matrix(0.115383,0.0779787,-0.0507281,0.177365,-413.684,-304.853)">
                    <path d="M2129,781.347C2129,781.347 2031.55,850.889 2045,887.756" style="fill:none;stroke:rgb(248,196,204);stroke-width:9.8px;"/>
                </g>
                <g transform="matrix(0.115383,0.0779787,-0.0507281,0.177365,-413.684,-304.853)">
                    <path d="M2203,781.347C2203,781.347 2136.97,821.499 2199,887.756C2261.03,954.013 2263.58,741.982 2203,781.347Z" style="fill:none;stroke:rgb(248,196,204);stroke-width:9.8px;"/>
                </g>
                <g transform="matrix(0.115383,0.0779787,-0.0507281,0.177365,-413.684,-304.853)">
                    <path d="M1889,966C1889,966 1868.79,887.505 1813,947C1757.21,1006.5 1856.14,1056.34 1877,1012" style="fill:none;stroke:rgb(248,196,204);stroke-width:9.8px;"/>
                </g>
                <g transform="matrix(0.115383,0.0779787,-0.0507281,0.177365,-413.684,-304.853)">
                    <path d="M1853,993L1915.44,1028.98" style="fill:none;stroke:rgb(248,196,204);stroke-width:9.8px;"/>
                </g>
                <g transform="matrix(0.115383,0.0779787,-0.0507281,0.177365,-413.684,-304.853)">
                    <path d="M1966,993C1966,993 2001.71,901.89 2043.73,1003C2085.74,1104.11 1944.93,1012.04 1966,993Z" style="fill:none;stroke:rgb(248,196,204);stroke-width:9.8px;"/>
                </g>
                <g transform="matrix(0.115383,0.0779787,-0.0507281,0.177365,-413.684,-304.853)">
                    <path d="M2140,976.852C2140,976.852 2066.47,922.826 2095,993C2123.53,1063.17 2132.12,1096.91 2086.36,1049.6" style="fill:none;stroke:rgb(248,196,204);stroke-width:9.8px;"/>
                </g>
                <g transform="matrix(0.115383,0.0779787,-0.0507281,0.177365,-413.684,-304.853)">
                    <path d="M2189,1010.99C2189,1010.99 2145.98,931.518 2140,1010.99C2134.02,1090.46 2206.65,1014.92 2172.43,1071.58C2138.22,1128.25 2151.92,1102.03 2133,1071.58" style="fill:none;stroke:rgb(248,196,204);stroke-width:9.8px;"/>
                </g>
                <g transform="matrix(0.115383,0.0779787,-0.0507281,0.177365,-413.684,-304.853)">
                    <path d="M2226,1010.99C2226,1010.99 2217.2,1101.62 2209.72,1104.96" style="fill:none;stroke:rgb(248,196,204);stroke-width:9.8px;"/>
                </g>
                <g transform="matrix(0.115383,0.0779787,-0.0507281,0.177365,-413.684,-304.853)">
                    <path d="M2266,1127L2281.65,1009.55" style="fill:none;stroke:rgb(248,196,204);stroke-width:9.8px;"/>
                </g>
                <g transform="matrix(0.115383,0.0779787,-0.0507281,0.177365,-413.684,-304.853)">
                    <path d="M2281.65,1009.55C2281.65,1009.55 2363.25,1052.78 2273.83,1057.98" style="fill:none;stroke:rgb(248,196,204);stroke-width:9.8px;"/>
                </g>
                <g transform="matrix(0.115383,0.0779787,-0.0507281,0.177365,-413.684,-304.853)">
                    <path d="M1943,1117C1943,1117 1928.17,1001.57 1881,1088C1833.83,1174.43 1919.11,1168.9 1930,1147" style="fill:none;stroke:rgb(248,196,204);stroke-width:9.8px;"/>
                </g>
                <g transform="matrix(0.115383,0.0779787,-0.0507281,0.177365,-413.684,-304.853)">
                    <path d="M1904.94,1127C1904.94,1127 1935.92,1160.74 1951,1160.76" style="fill:none;stroke:rgb(248,196,204);stroke-width:9.8px;"/>
                </g>
                <g transform="matrix(0.115383,0.0779787,-0.0507281,0.177365,-413.684,-304.853)">
                    <path d="M1992,1108.33C1992,1108.33 1971.12,1167.93 1977,1189.55" style="fill:none;stroke:rgb(248,196,204);stroke-width:9.8px;"/>
                </g>
                <g transform="matrix(0.115383,0.0779787,-0.0507281,0.177365,-413.684,-304.853)">
                    <path d="M1992,1087C1992,1087 1995.64,1074.98 2005,1078" style="fill:none;stroke:rgb(248,196,204);stroke-width:9.8px;"/>
                </g>
                <g transform="matrix(0.115383,0.0779787,-0.0507281,0.177365,-413.684,-304.853)">
                    <path d="M2226,983C2226,983 2231.37,959.59 2242,961" style="fill:none;stroke:rgb(248,196,204);stroke-width:9.8px;"/>
                </g>
                <g transform="matrix(0.115383,0.0779787,-0.0507281,0.177365,-414.15,-307.073)">
                    <path d="M2053,1127C2053,1127 2028.9,1197.18 2040,1211" style="fill:none;stroke:rgb(248,196,204);stroke-width:9.8px;"/>
                </g>
                <g transform="matrix(0.115383,0.0779787,-0.0507281,0.177365,-414.15,-307.073)">
                    <path d="M2053,1127C2053,1127 2104.08,1168.43 2045.04,1169C2036.02,1169.09 2070.87,1211.88 2093,1211" style="fill:none;stroke:rgb(248,196,204);stroke-width:9.8px;"/>
                </g>
                <g transform="matrix(0.115383,0.0779787,-0.0507281,0.177365,-413.684,-304.853)">
                    <path d="M2126,1139C2126,1139 2103.45,1203.29 2129,1218C2154.55,1232.71 2192,1229 2192,1229" style="fill:none;stroke:rgb(248,196,204);stroke-width:9.8px;"/>
                </g>
                <g transform="matrix(-0.117194,0.0713104,-0.0463901,-0.18015,42.6263,391.814)">
                    <path d="M1438,1324C1438,1324 1363.27,1423.1 1496,1505" style="fill:none;stroke:rgb(248,196,204);stroke-width:9.8px;"/>
                </g>
                <g transform="matrix(-0.117194,0.0713104,-0.0463901,-0.18015,42.6263,391.814)">
                    <path d="M1533.05,1414.5C1533.05,1414.5 1431.16,1367.25 1361.84,1433" style="fill:none;stroke:rgb(248,196,204);stroke-width:9.8px;"/>
                </g>
                <g transform="matrix(-0.117194,0.0713104,-0.0463901,-0.18015,42.6263,391.814)">
                    <path d="M1575,1433C1684.09,1375.75 1641.34,1504.51 1713.97,1414.5" style="fill:none;stroke:rgb(248,196,204);stroke-width:9.8px;"/>
                </g>
                <g transform="matrix(0.126042,0,0,0.19375,-560.628,-168.03)">
                    <path d="M1425,1567C1475.95,1598.2 1481.41,1642.22 1521,1636C1560.59,1629.78 1516,1568 1516,1568C1516,1568 1461.91,1583.38 1434,1618C1406.09,1652.62 1374.69,1668.22 1361.84,1649C1348.99,1629.78 1429.69,1580.16 1456.52,1565C1483.34,1549.84 1496.23,1520.26 1486.09,1579.72C1475.95,1639.18 1463,1666 1463,1666C1463,1666 1474.7,1686.58 1447.45,1679C1420.2,1671.42 1389.69,1688 1417.04,1630C1444.38,1572.01 1462.61,1547.6 1447.45,1542C1432.29,1536.4 1417.04,1536 1417.04,1536C1417.04,1536 1409.92,1555.9 1480.89,1606.61C1551.86,1657.32 1558.2,1672.48 1551,1678C1543.8,1683.52 1488.13,1706.82 1447.45,1673" style="fill:none;stroke:rgb(248,196,204);stroke-width:9.8px;"/>
                </g>
                <g transform="matrix(-0.117194,0.0713104,-0.0463901,-0.18015,42.6263,391.814)">
                    <path d="M1404,1575C1404,1575 1422.62,1633.82 1456.52,1627.03" style="fill:none;stroke:rgb(248,196,204);stroke-width:9.8px;"/>
                </g>
                <g transform="matrix(-0.117194,0.0713104,-0.0463901,-0.18015,42.6263,391.814)">
                    <path d="M1466,1585C1466,1585 1394.21,1607.58 1404,1627.03" style="fill:none;stroke:rgb(248,196,204);stroke-width:9.8px;"/>
                </g>
                <g transform="matrix(-0.117194,0.0713104,-0.0463901,-0.18015,42.6263,391.814)">
                    <path d="M1430.26,1563C1430.26,1563 1411.04,1610.77 1430.26,1627.58" style="fill:none;stroke:rgb(248,196,204);stroke-width:9.8px;"/>
                </g>
                <g transform="matrix(-0.117194,0.0713104,-0.0463901,-0.18015,42.6263,391.814)">
                    <path d="M1392,1606.02C1392,1606.02 1449.91,1614.88 1456.52,1606.02" style="fill:none;stroke:rgb(248,196,204);stroke-width:9.8px;"/>
                </g>
                <g transform="matrix(-0.117194,0.0713104,-0.0463901,-0.18015,42.6263,391.814)">
                    <path d="M1590,1595.29C1590,1595.29 1630.75,1604.97 1654,1595.29" style="fill:none;stroke:rgb(248,196,204);stroke-width:9.8px;"/>
                </g>
                <g transform="matrix(-0.117194,0.0713104,-0.0463901,-0.18015,42.6263,391.814)">
                    <path d="M1622,1563C1634.22,1546.77 1623.84,1550.23 1639,1549.55" style="fill:none;stroke:rgb(248,196,204);stroke-width:9.8px;"/>
                </g>
                <g transform="matrix(-0.117194,0.0713104,-0.0463901,-0.18015,42.6263,391.814)">
                    <path d="M1622,1650C1623.72,1632.84 1639,1627.58 1639,1627.58" style="fill:none;stroke:rgb(248,196,204);stroke-width:9.8px;"/>
                </g>
            </g>
        </g>
    </g>
</svg>
