<?xml version="1.0" encoding="UTF-8" standalone="no"?>
<!DOCTYPE svg PUBLIC "-//W3C//DTD SVG 1.1//EN" "http://www.w3.org/Graphics/SVG/1.1/DTD/svg11.dtd">
<svg width="100%" height="100%" viewBox="0 0 360 360" version="1.1" xmlns="http://www.w3.org/2000/svg" xmlns:xlink="http://www.w3.org/1999/xlink" xml:space="preserve" xmlns:serif="http://www.serif.com/" style="fill-rule:evenodd;clip-rule:evenodd;stroke-linejoin:round;stroke-miterlimit:2;">
    <g transform="matrix(10.0122,0,0,7.60185,-730.976,-1060)">
        <rect x="73.009" y="139.44" width="35.956" height="47.357" style="fill:rgb(254,249,221);"/>
    </g>
    <g transform="matrix(1,0,0,1,0,3.15712)">
        <g transform="matrix(7.1985e-19,0.011756,-4.25389,2.60475e-16,548.394,-0.997474)">
            <rect x="84.848" y="44.287" width="106.114" height="84.629" style="fill:rgb(144,208,194);"/>
        </g>
        <g transform="matrix(7.1985e-19,0.011756,-4.25389,2.60475e-16,548.394,297.477)">
            <rect x="84.848" y="44.287" width="106.114" height="84.629" style="fill:rgb(144,208,194);"/>
        </g>
        <g transform="matrix(7.1985e-19,0.011756,-4.25389,2.60475e-16,548.394,28.85)">
            <rect x="84.848" y="44.287" width="106.114" height="84.629" style="fill:rgb(144,208,194);"/>
        </g>
        <g transform="matrix(7.1985e-19,0.011756,-4.25389,2.60475e-16,548.394,58.6975)">
            <rect x="84.848" y="44.287" width="106.114" height="84.629" style="fill:rgb(144,208,194);"/>
        </g>
        <g transform="matrix(7.1985e-19,0.011756,-4.25389,2.60475e-16,548.394,88.545)">
            <rect x="84.848" y="44.287" width="106.114" height="84.629" style="fill:rgb(144,208,194);"/>
        </g>
        <g transform="matrix(7.1985e-19,0.011756,-4.25389,2.60475e-16,548.394,118.392)">
            <rect x="84.848" y="44.287" width="106.114" height="84.629" style="fill:rgb(144,208,194);"/>
        </g>
        <g transform="matrix(7.1985e-19,0.011756,-4.25389,2.60475e-16,548.394,148.24)">
            <rect x="84.848" y="44.287" width="106.114" height="84.629" style="fill:rgb(144,208,194);"/>
        </g>
        <g transform="matrix(7.1985e-19,0.011756,-4.25389,2.60475e-16,548.394,178.087)">
            <rect x="84.848" y="44.287" width="106.114" height="84.629" style="fill:rgb(144,208,194);"/>
        </g>
        <g transform="matrix(7.1985e-19,0.011756,-4.25389,2.60475e-16,548.394,207.935)">
            <rect x="84.848" y="44.287" width="106.114" height="84.629" style="fill:rgb(144,208,194);"/>
        </g>
        <g transform="matrix(7.1985e-19,0.011756,-4.25389,2.60475e-16,548.394,237.782)">
            <rect x="84.848" y="44.287" width="106.114" height="84.629" style="fill:rgb(144,208,194);"/>
        </g>
        <g transform="matrix(7.1985e-19,0.011756,-4.25389,2.60475e-16,548.394,267.63)">
            <rect x="84.848" y="44.287" width="106.114" height="84.629" style="fill:rgb(144,208,194);"/>
        </g>
        <g transform="matrix(7.1985e-19,0.011756,-4.25389,2.60475e-16,548.394,327.325)">
            <rect x="84.848" y="44.287" width="106.114" height="84.629" style="fill:rgb(144,208,194);"/>
        </g>
    </g>
    <g transform="matrix(6.12323e-17,1,-1,6.12323e-17,340.971,-0.291337)">
        <g transform="matrix(7.1985e-19,0.011756,-4.25389,2.60475e-16,548.394,-0.997474)">
            <rect x="84.848" y="44.287" width="106.114" height="84.629" style="fill:rgb(144,208,194);"/>
        </g>
        <g transform="matrix(7.1985e-19,0.011756,-4.25389,2.60475e-16,548.394,297.477)">
            <rect x="84.848" y="44.287" width="106.114" height="84.629" style="fill:rgb(144,208,194);"/>
        </g>
        <g transform="matrix(7.1985e-19,0.011756,-4.25389,2.60475e-16,548.394,28.85)">
            <rect x="84.848" y="44.287" width="106.114" height="84.629" style="fill:rgb(144,208,194);"/>
        </g>
        <g transform="matrix(7.1985e-19,0.011756,-4.25389,2.60475e-16,548.394,58.6975)">
            <rect x="84.848" y="44.287" width="106.114" height="84.629" style="fill:rgb(144,208,194);"/>
        </g>
        <g transform="matrix(7.1985e-19,0.011756,-4.25389,2.60475e-16,548.394,88.545)">
            <rect x="84.848" y="44.287" width="106.114" height="84.629" style="fill:rgb(144,208,194);"/>
        </g>
        <g transform="matrix(7.1985e-19,0.011756,-4.25389,2.60475e-16,548.394,118.392)">
            <rect x="84.848" y="44.287" width="106.114" height="84.629" style="fill:rgb(144,208,194);"/>
        </g>
        <g transform="matrix(7.1985e-19,0.011756,-4.25389,2.60475e-16,548.394,148.24)">
            <rect x="84.848" y="44.287" width="106.114" height="84.629" style="fill:rgb(144,208,194);"/>
        </g>
        <g transform="matrix(7.1985e-19,0.011756,-4.25389,2.60475e-16,548.394,178.087)">
            <rect x="84.848" y="44.287" width="106.114" height="84.629" style="fill:rgb(144,208,194);"/>
        </g>
        <g transform="matrix(7.1985e-19,0.011756,-4.25389,2.60475e-16,548.394,207.935)">
            <rect x="84.848" y="44.287" width="106.114" height="84.629" style="fill:rgb(144,208,194);"/>
        </g>
        <g transform="matrix(7.1985e-19,0.011756,-4.25389,2.60475e-16,548.394,237.782)">
            <rect x="84.848" y="44.287" width="106.114" height="84.629" style="fill:rgb(144,208,194);"/>
        </g>
        <g transform="matrix(7.1985e-19,0.011756,-4.25389,2.60475e-16,548.394,267.63)">
            <rect x="84.848" y="44.287" width="106.114" height="84.629" style="fill:rgb(144,208,194);"/>
        </g>
        <g transform="matrix(7.1985e-19,0.011756,-4.25389,2.60475e-16,548.394,327.325)">
            <rect x="84.848" y="44.287" width="106.114" height="84.629" style="fill:rgb(144,208,194);"/>
        </g>
    </g>
</svg>
