<?xml version="1.0" encoding="UTF-8" standalone="no"?>
<!DOCTYPE svg PUBLIC "-//W3C//DTD SVG 1.1//EN" "http://www.w3.org/Graphics/SVG/1.1/DTD/svg11.dtd">
<svg width="100%" height="100%" viewBox="0 0 81 72" version="1.1" xmlns="http://www.w3.org/2000/svg" xmlns:xlink="http://www.w3.org/1999/xlink" xml:space="preserve" xmlns:serif="http://www.serif.com/" style="fill-rule:evenodd;clip-rule:evenodd;stroke-linejoin:round;stroke-miterlimit:2;">
    <g transform="matrix(1,0,0,1,-632.027,-4.9326)">
        <path d="M671.471,6.122C671.471,6.122 625.684,-5.222 632.772,42.154C639.861,89.529 685.265,73.81 691.012,73.815C696.76,73.82 720.898,62.843 709.404,37.966C697.909,13.089 685.073,11.188 671.471,6.122Z" style="fill:rgb(255,162,162);"/>
        <g transform="matrix(1.51771,0,0,1.18287,159.52,-139.19)">
            <g transform="matrix(0.658885,0,0,0.845399,-105.106,117.671)">
                <path d="M637.983,27.422C636.498,27.85 634.945,26.992 634.517,25.507C634.089,24.022 634.947,22.469 636.432,22.041C640.685,20.815 645.553,19.91 650.026,20.256C659.173,20.965 664.852,26.744 669.159,34.045C672.968,40.502 675.652,48.174 679.289,53.634C683.366,59.755 692.492,63.047 699.667,62.761C701.211,62.7 702.514,63.904 702.576,65.448C702.637,66.992 701.434,68.295 699.889,68.357C690.955,68.712 679.705,64.361 674.628,56.738C670.941,51.203 668.197,43.437 664.335,36.89C660.971,31.186 656.739,26.393 649.593,25.84C645.771,25.544 641.618,26.374 637.983,27.422Z"/>
            </g>
        </g>
        <g transform="matrix(1.51771,0,0,1.18287,159.52,-139.19)">
            <g transform="matrix(0.658885,0,0,0.845399,-105.106,117.671)">
                <path d="M699.783,27.379C700.8,28.543 700.68,30.313 699.517,31.33C698.353,32.347 696.582,32.227 695.566,31.063C693.421,28.609 690.229,27.883 687.168,28.331C683.942,28.802 680.81,30.559 678.995,33.239C675.558,38.316 673.723,45.802 670.714,52.033C667.18,59.352 662.181,65.039 652.81,65.184C650.353,65.222 647.933,64.878 645.577,64.188C644.094,63.754 643.243,62.197 643.677,60.714C644.111,59.231 645.668,58.379 647.151,58.814C648.966,59.345 650.831,59.614 652.724,59.585C659.621,59.478 663.07,54.985 665.671,49.598C668.798,43.122 670.785,35.376 674.358,30.099C679.787,22.081 693.023,19.64 699.783,27.379Z"/>
            </g>
        </g>
    </g>
</svg>
