<?xml version="1.0" encoding="UTF-8" standalone="no"?>
<!DOCTYPE svg PUBLIC "-//W3C//DTD SVG 1.1//EN" "http://www.w3.org/Graphics/SVG/1.1/DTD/svg11.dtd">
<svg width="100%" height="100%" viewBox="0 0 113 77" version="1.1" xmlns="http://www.w3.org/2000/svg" xmlns:xlink="http://www.w3.org/1999/xlink" xml:space="preserve" xmlns:serif="http://www.serif.com/" style="fill-rule:evenodd;clip-rule:evenodd;stroke-linejoin:round;stroke-miterlimit:2;">
    <g transform="matrix(1,0,0,1,-516.462,-1.35937)">
        <g transform="matrix(1.51771,0,0,1.18287,159.52,-139.19)">
            <g transform="matrix(0.658885,0,0,0.845399,-105.106,117.671)">
                <path d="M626.674,17.009C626.674,17.009 622.995,-6.42 563.281,4.055C555.029,5.503 543.962,4.006 535.176,10.492C488.102,45.248 539.045,82.452 586.622,77.241C634.2,72.031 630.505,36.169 626.674,17.009Z" style="fill:rgb(255,223,126);"/>
            </g>
        </g>
        <g transform="matrix(1.51771,0,0,1.18287,159.52,-139.19)">
            <g transform="matrix(0.658885,0,0,0.845399,-105.106,120.847)">
                <path d="M540.759,23.329C539.557,22.918 538.749,21.721 538.88,20.402C539.033,18.865 540.405,17.74 541.943,17.893C553.494,19.042 565.629,17.847 576.735,21.863C580.197,23.114 584.194,25.169 586.163,28.503C587.353,30.518 587.25,33.636 587.394,35.906C587.747,41.44 587.834,46.904 587.425,52.447C587.186,55.673 586.807,59.694 585.587,63.206C584.654,65.89 583.234,68.284 581.161,70.001C579.401,71.458 577.54,71.841 575.573,71.748C574.236,71.685 572.839,71.346 571.404,71.198C566.994,70.742 562.547,70.497 558.167,69.773C554.747,69.208 550.39,68.345 546.793,66.553C544.027,65.176 541.701,63.255 540.31,60.656C539.577,59.289 539.296,57.434 539.347,55.438C539.403,53.241 539.847,50.841 539.908,49.182C540.218,40.748 540.714,32.27 540.714,23.833C540.714,23.661 540.729,23.493 540.759,23.329ZM546.314,23.821C546.314,23.825 546.314,23.829 546.314,23.833C546.314,32.338 545.817,40.885 545.504,49.387C545.453,50.791 545.134,52.717 544.995,54.61C544.901,55.886 544.787,57.154 545.246,58.013C546.344,60.062 548.479,61.298 550.786,62.201C553.546,63.282 556.6,63.838 559.08,64.248C563.349,64.953 567.683,65.184 571.98,65.628C573.097,65.743 574.19,65.981 575.248,66.104C576.066,66.199 576.869,66.283 577.589,65.688C579.263,64.301 580.15,62.157 580.738,59.906C581.434,57.24 581.666,54.393 581.84,52.035C582.23,46.749 582.142,41.539 581.806,36.262C581.746,35.325 581.78,34.207 581.707,33.114C581.664,32.476 581.628,31.837 581.341,31.35C580.016,29.107 577.16,27.971 574.831,27.129C565.729,23.838 555.896,24.299 546.314,23.821Z"/>
            </g>
        </g>
        <g transform="matrix(1.51771,0,0,1.18287,159.52,-139.19)">
            <g transform="matrix(0.658885,0,0,0.845399,-105.106,120.847)">
                <path d="M565.77,22.857C565.813,24.402 564.593,25.691 563.049,25.734C561.504,25.777 560.215,24.558 560.172,23.013C560.078,19.648 560.245,16.305 560.371,12.944C560.405,12.057 560.296,11.019 560.395,10.056C560.51,8.947 560.846,7.915 561.491,7.038C563.909,3.75 568.404,2.238 572.204,1.436C579.543,-0.114 587.52,-0.32 595.015,-0.281C596.764,-0.272 599.259,-0.538 601.502,-0.379C603.526,-0.236 605.369,0.269 606.69,1.223C610.469,3.954 611.956,9.344 612.536,13.678C613.681,22.226 612.719,31.13 612.607,39.736C612.577,41.987 612.81,45.026 612.387,47.718C612.019,50.052 611.167,52.143 609.64,53.636C606.877,56.338 603.242,57.943 599.271,58.913C593.981,60.205 588.075,60.354 583.318,61.037C581.789,61.256 580.368,60.193 580.149,58.663C579.929,57.133 580.993,55.713 582.522,55.493C586.394,54.937 591.047,54.758 595.481,53.983C599.366,53.303 603.1,52.199 605.725,49.632C606.667,48.711 606.862,47.242 606.981,45.757C607.153,43.625 606.985,41.391 607.007,39.663C607.116,31.327 608.095,22.701 606.986,14.421C606.59,11.47 605.984,7.621 603.411,5.762C602.623,5.193 601.394,5.187 600.157,5.169C598.305,5.141 596.395,5.326 594.986,5.319C587.881,5.282 580.317,5.446 573.36,6.915C570.807,7.454 567.627,8.147 566.002,10.356C565.824,10.597 565.941,10.932 565.943,11.245C565.947,11.904 565.99,12.563 565.967,13.155C565.845,16.393 565.68,19.615 565.77,22.857Z"/>
            </g>
        </g>
    </g>
</svg>
