<?xml version="1.0" encoding="UTF-8" standalone="no"?>
<!DOCTYPE svg PUBLIC "-//W3C//DTD SVG 1.1//EN" "http://www.w3.org/Graphics/SVG/1.1/DTD/svg11.dtd">
<svg width="100%" height="100%" viewBox="0 0 102 66" version="1.1" xmlns="http://www.w3.org/2000/svg" xmlns:xlink="http://www.w3.org/1999/xlink" xml:space="preserve" xmlns:serif="http://www.serif.com/" style="fill-rule:evenodd;clip-rule:evenodd;stroke-linejoin:round;stroke-miterlimit:2;">
    <g transform="matrix(1,0,0,1,-407.803,-8.4763)">
        <g transform="matrix(1.51771,0,0,1.18287,159.52,-139.19)">
            <g transform="matrix(0.658885,0,0,0.845399,-105.106,117.671)">
                <path d="M424.453,13.345C424.453,13.345 395.142,52.81 414.3,67.179C433.457,81.547 485.758,68.137 495.912,67.945C506.066,67.754 518.518,18.901 497.253,15.644C475.988,12.387 436.262,2.678 424.453,13.345Z" style="fill:rgb(122,255,133);"/>
            </g>
        </g>
        <g transform="matrix(1.51771,0,0,1.18287,159.52,-139.19)">
            <g transform="matrix(0.658885,0,0,0.845399,-105.106,117.671)">
                <path d="M420.251,42.119C418.75,42.486 417.233,41.565 416.866,40.064C416.499,38.562 417.42,37.046 418.922,36.679C442.592,30.895 467.36,35.336 491.239,36.215C492.783,36.272 493.991,37.572 493.934,39.116C493.877,40.661 492.577,41.868 491.033,41.812C467.661,40.951 443.418,36.458 420.251,42.119Z"/>
            </g>
        </g>
    </g>
</svg>
