<?xml version="1.0" encoding="UTF-8" standalone="no"?>
<!DOCTYPE svg PUBLIC "-//W3C//DTD SVG 1.1//EN" "http://www.w3.org/Graphics/SVG/1.1/DTD/svg11.dtd">
<svg width="100%" height="100%" viewBox="0 0 360 360" version="1.1" xmlns="http://www.w3.org/2000/svg" xmlns:xlink="http://www.w3.org/1999/xlink" xml:space="preserve" xmlns:serif="http://www.serif.com/" style="fill-rule:evenodd;clip-rule:evenodd;stroke-linejoin:round;stroke-miterlimit:2;">
    <g transform="matrix(2.8807,0,0,3.36475,-518.526,-101.803)">
        <rect x="180" y="30.256" width="124.97" height="106.991" style="fill:rgb(144,208,194);"/>
    </g>
    <g transform="matrix(1,0,0,1,9.22093,30.8697)">
        <path d="M206.106,216.791C206.106,216.791 355.412,207.802 276.264,286.949C197.117,366.097 301.641,347.53 284.401,342.43C269.226,337.94 256.434,305.204 334.145,265.902C390.388,237.457 238.305,190.761 224.084,186.097C202.677,179.075 164.053,211.394 206.106,216.791Z" style="fill:rgb(254,249,221);"/>
    </g>
    <g transform="matrix(1,0,0,1,9.22093,-329.13)">
        <path d="M206.106,216.791C206.106,216.791 355.412,207.802 276.264,286.949C197.117,366.097 301.641,347.53 284.401,342.43C269.226,337.94 256.434,305.204 334.145,265.902C390.388,237.457 238.305,190.761 224.084,186.097C202.677,179.075 164.053,211.394 206.106,216.791Z" style="fill:rgb(254,249,221);"/>
    </g>
    <path d="M324.124,360L279.822,360" style="fill:none;"/>
    <path d="M269.817,180C229.097,176.039 202.034,99.86 201.687,99.128C190.237,74.919 238.024,4.232 272.886,41.965C310.158,82.306 321.558,95.022 317.174,116.508C312.789,137.994 298.685,182.808 269.817,180Z" style="fill:rgb(254,249,221);"/>
    <path d="M38.357,73.519C38.357,73.519 48.5,36.945 77.393,56.565C96.445,69.502 109.331,48.802 110.996,43.614C110.996,43.614 115.981,7.016 137.028,42.533C158.076,78.051 155.883,90.767 147.552,102.168C139.22,113.569 91.425,128.477 75.201,128.916C58.977,129.354 38.55,135.704 30.037,121.023C24.225,111.002 56.238,110.909 47.576,103.484C30.015,88.431 38.357,73.519 38.357,73.519Z" style="fill:rgb(254,249,221);"/>
    <path d="M41.799,289.139C40.606,281.36 40.996,183.333 95.807,224.989C150.618,266.646 191.112,298.071 180,320.726C168.991,343.171 47.696,327.603 41.799,289.139Z" style="fill:rgb(254,249,221);"/>
</svg>
